<svg width="58" height="60" viewBox="0 0 58 60" fill="none" xmlns="http://www.w3.org/2000/svg">
<path d="M27.5049 0.323134C22.7174 0.380927 12.4247 1.16766 6.66776 6.44918C2.38549 10.6923 0.890336 16.9656 0.715093 24.7229C0.569679 32.4522 0.394435 46.9676 14.3859 50.9198V56.9396C14.3859 56.9396 14.2983 59.3483 15.8904 59.8423C17.8516 60.4631 18.9683 58.61 20.8326 56.619L24.3095 52.6872C33.8826 53.4832 41.2148 51.6488 42.0593 51.3766C44.0019 50.7558 54.9434 49.3576 56.7313 34.8404C58.5657 19.8478 55.8383 10.4015 50.9147 6.12852H50.8849C49.399 4.76013 43.4277 0.408891 30.0869 0.36042C30.0869 0.36042 29.097 0.293305 27.5049 0.32127V0.323134ZM27.6689 4.53828C29.028 4.52896 29.8539 4.58676 29.8539 4.58676C41.1459 4.61658 46.5355 8.01518 47.8069 9.15985C51.9531 12.7132 54.0896 21.2292 52.5254 33.746C51.0396 45.8825 42.1656 46.6506 40.5232 47.1745C39.8241 47.3982 33.3662 48.9903 25.2304 48.4664C25.2304 48.4664 19.1715 55.7782 17.2774 57.6611C16.9773 57.9911 16.6268 58.088 16.4031 58.0396C16.0824 57.9613 15.9855 57.5642 16.0041 57.0198L16.0619 47.0291C4.19572 43.7479 4.89482 31.3672 5.02159 24.9C5.16701 18.4328 6.38066 13.142 9.99364 9.5588C14.8576 5.16095 23.5973 4.56811 27.6652 4.53828H27.6689ZM28.5638 11.0036C28.4661 11.0026 28.3692 11.021 28.2787 11.0576C28.1882 11.0943 28.1058 11.1485 28.0363 11.2171C27.9668 11.2857 27.9116 11.3674 27.8738 11.4575C27.836 11.5476 27.8165 11.6442 27.8162 11.7419C27.8162 12.1595 28.1555 12.4895 28.5638 12.4895C30.4122 12.4543 32.2494 12.7854 33.9692 13.4638C35.689 14.1421 37.2576 15.1542 38.5843 16.4417C41.2931 19.0723 42.613 22.6069 42.6634 27.2285C42.6634 27.6368 42.9934 27.9761 43.411 27.9761V27.9463C43.6078 27.9468 43.7968 27.8694 43.9368 27.7311C44.0769 27.5928 44.1566 27.4048 44.1585 27.208C44.2491 25.0327 43.8963 22.8616 43.1217 20.8269C42.3471 18.7921 41.1668 16.9361 39.6526 15.3716C36.7014 12.4876 32.9616 11.0018 28.5638 11.0018V11.0036ZM18.7371 12.7132C18.2094 12.6361 17.6713 12.742 17.2122 13.0133H17.173C16.1071 13.6381 15.1469 14.4278 14.3281 15.353C13.6476 16.1397 13.2785 16.9358 13.1816 17.702C13.1238 18.1588 13.1629 18.6155 13.299 19.0517L13.3475 19.0816C14.1137 21.3336 15.1148 23.4999 16.3378 25.5395C17.9132 28.4048 19.8519 31.0547 22.1059 33.4235L22.173 33.5205L22.2793 33.5988L22.3464 33.6771L22.4247 33.7442C24.8021 36.0048 27.4584 37.9526 30.3293 39.5402C33.6104 41.3262 35.6015 42.1708 36.7965 42.5212V42.5399C37.147 42.6461 37.4657 42.6946 37.7864 42.6946C38.8048 42.62 39.769 42.2065 40.525 41.5201C41.446 40.7011 42.2269 39.737 42.8368 38.6659V38.6473C43.4091 37.5697 43.2152 36.5499 42.3893 35.8601C40.7354 34.4144 38.9468 33.1303 37.0481 32.0253C35.7767 31.3355 34.4848 31.7531 33.9609 32.4522L32.8442 33.8598C32.2719 34.5589 31.2316 34.4619 31.2316 34.4619L31.2018 34.4806C23.4445 32.4988 21.3751 24.6446 21.3751 24.6446C21.3751 24.6446 21.2782 23.5764 21.9959 23.032L23.3941 21.906C24.0634 21.3616 24.5295 20.0715 23.8117 18.7982C22.7144 16.8969 21.4331 15.1079 19.9862 13.457C19.6699 13.0678 19.2261 12.803 18.7334 12.7094L18.7371 12.7132ZM29.8539 14.9279C28.8639 14.9279 28.8639 16.4231 29.8632 16.4231C31.0941 16.4431 32.3091 16.7054 33.4386 17.1952C34.5681 17.6849 35.59 18.3924 36.446 19.2773C37.2268 20.1386 37.8268 21.1479 38.2104 22.2453C38.5941 23.3428 38.7535 24.506 38.6794 25.6662C38.6828 25.8626 38.763 26.0498 38.9027 26.1878C39.0424 26.3258 39.2306 26.4035 39.427 26.4045L39.4568 26.4436C39.6546 26.4422 39.8439 26.3629 39.9838 26.2231C40.1237 26.0832 40.2029 25.8939 40.2044 25.6961C40.2715 22.7337 39.3505 20.2486 37.5441 18.2576C35.7282 16.2665 33.1947 15.1498 29.9601 14.9279H29.8539ZM31.0787 18.9473C30.0589 18.9175 30.0198 20.4425 31.0302 20.4723C33.4874 20.5991 34.6805 21.8407 34.8371 24.3948C34.8405 24.5887 34.9197 24.7735 35.0577 24.9097C35.1956 25.046 35.3815 25.1228 35.5754 25.1237H35.6052C35.7049 25.1195 35.8027 25.0954 35.893 25.0529C35.9833 25.0104 36.0642 24.9503 36.131 24.8762C36.1978 24.8021 36.2492 24.7154 36.2822 24.6213C36.3151 24.5271 36.329 24.4273 36.3229 24.3277C36.1477 20.9981 34.3319 19.1226 31.1085 18.9492H31.0787V18.9473Z" fill="#142239"/>
</svg>
