<svg width="60" height="60" viewBox="0 0 60 60" fill="none" xmlns="http://www.w3.org/2000/svg">
<path d="M42.495 35.7435C41.8096 35.3866 38.3948 33.6914 37.7596 33.4619C37.1245 33.2197 36.6591 33.105 36.2 33.8188C35.7347 34.5262 34.414 36.1004 33.999 36.5784C33.5965 37.05 33.1877 37.1074 32.5023 36.7569C28.4272 34.6919 25.7545 33.0732 23.0692 28.4016C22.3586 27.1588 23.7798 27.2481 25.1067 24.5649C25.3331 24.0933 25.2199 23.6918 25.0439 23.3349C24.8678 22.978 23.4843 19.5238 22.9057 18.1153C22.346 16.745 21.7674 16.9362 21.3461 16.9107C20.9436 16.8853 20.4845 16.8853 20.0192 16.8853C19.5538 16.8853 18.8055 17.0637 18.1703 17.7584C17.5351 18.4658 15.7429 20.1674 15.7429 23.6217C15.7429 27.076 18.2269 30.4219 18.5665 30.8935C18.9187 31.3651 23.4528 38.4521 30.4144 41.5049C34.8165 43.4296 36.5396 43.5953 38.7407 43.2639C40.0802 43.0599 42.8409 41.5686 43.4132 39.918C43.9854 38.2737 43.9854 36.8652 43.8157 36.572C43.6459 36.2598 43.1805 36.0813 42.495 35.7435Z" fill="#142239"/>
<path d="M55.8113 19.2262C54.3902 15.8494 52.3528 12.8184 49.7558 10.2151C47.1588 7.61805 44.1279 5.57437 40.7449 4.15951C37.2864 2.70692 33.6141 1.97119 29.8286 1.97119H29.7028C25.8922 1.99006 22.201 2.74465 18.7299 4.22868C15.3783 5.6624 12.3726 7.6998 9.80069 10.2969C7.22882 12.8939 5.21032 15.9123 3.81434 19.2765C2.36806 22.7602 1.63863 26.464 1.65749 30.2747C1.67636 34.6387 2.7202 38.9713 4.67582 42.8449V52.4031C4.67582 54.0003 5.97119 55.2957 7.56839 55.2957H17.1327C21.0062 57.2513 25.3388 58.2952 29.7028 58.314H29.8349C33.6015 58.314 37.2549 57.5846 40.6945 56.1572C44.0587 54.7549 47.0833 52.7426 49.6741 50.1707C52.2711 47.5988 54.3148 44.593 55.7422 41.2414C57.2262 37.7703 57.9808 34.0791 57.9996 30.2684C58.0185 26.4388 57.2765 22.7225 55.8113 19.2262ZM46.3099 46.7688C41.9019 51.1328 36.0539 53.535 29.8286 53.535H29.7217C25.9299 53.5161 22.1633 52.5729 18.8368 50.7996L18.3086 50.5166H9.45484V41.6627L9.17187 41.1345C7.39861 37.808 6.45538 34.0413 6.43651 30.2495C6.41136 23.9801 8.80716 18.0943 13.2026 13.6611C17.5918 9.22785 23.4586 6.77543 29.728 6.75027H29.8349C32.9789 6.75027 36.0287 7.36023 38.9024 8.56758C41.7069 9.74349 44.2222 11.435 46.3854 13.5982C48.5422 15.7551 50.24 18.2767 51.4159 21.0812C52.6358 23.9864 53.2458 27.0677 53.2332 30.2495C53.1955 36.5126 50.7368 42.3796 46.3099 46.7688Z" fill="#142239"/>
</svg>
