<svg width="22" height="22" viewBox="0 0 22 22" fill="none" xmlns="http://www.w3.org/2000/svg">
<path fill-rule="evenodd" clip-rule="evenodd" d="M14.9289 7.03419C15.125 6.86508 15.3898 6.7699 15.666 6.76924C15.9422 6.76857 16.2075 6.86248 16.4047 7.03065C16.6019 7.19881 16.7151 7.42773 16.7198 7.66791C16.7246 7.90809 16.6204 8.14024 16.4299 8.31415L10.8351 14.397C10.739 14.4871 10.6229 14.5594 10.4939 14.6096C10.3649 14.6598 10.2256 14.6868 10.0843 14.6891C9.94297 14.6914 9.80259 14.6688 9.67154 14.6228C9.54048 14.5768 9.42143 14.5083 9.3215 14.4214L5.61455 11.1959C5.51128 11.1122 5.42844 11.0113 5.37099 10.8991C5.31354 10.787 5.28265 10.6659 5.28016 10.5431C5.27767 10.4204 5.30363 10.2985 5.3565 10.1846C5.40937 10.0708 5.48805 9.96735 5.58787 9.88054C5.68768 9.79372 5.80657 9.72528 5.93746 9.6793C6.06834 9.63331 6.20853 9.61073 6.34966 9.6129C6.4908 9.61506 6.62999 9.64193 6.75892 9.6919C6.88786 9.74187 7.0039 9.81392 7.10013 9.90375L10.0349 12.4551L14.9023 7.06101C14.9109 7.05156 14.9203 7.04261 14.9303 7.03419H14.9289Z" fill="#CE2F27"/>
<rect x="0.5" y="0.5" width="21" height="21" rx="2.5" stroke="#CE2F27"/>
</svg>
